<?xml version="1.0" encoding="utf-8"?><!-- Uploaded to: SVG Repo, www.svgrepo.com, Generator: SVG Repo Mixer Tools -->
<svg fill="#000000" width="800px" height="800px" viewBox="0 -1.82 49.704 49.704" xmlns="http://www.w3.org/2000/svg">
  <path id="people_user" data-name="people user" d="M587.32,484.18l1.787-.487c1.348-.36,2.731-.73,3.848-1.087a24.844,24.844,0,0,1-2.228-4.319,6.915,6.915,0,0,1-1.09-1.219,8.12,8.12,0,0,1-1.3-2.884,8.794,8.794,0,0,1-.24-2.022,7.117,7.117,0,0,1,.74-3.253,15.055,15.055,0,0,1,1.752-6.318,6.954,6.954,0,0,0-4.153-1.4c-4.017.005-7.3,3.524-7.384,7.9a3.22,3.22,0,0,0-.463,1.744,4.272,4.272,0,0,0,.122,1.014,4.054,4.054,0,0,0,.645,1.441,3.013,3.013,0,0,0,.719.734,13.56,13.56,0,0,0,2.232,3.926c0,.012,0,.024,0,.035s0,.056-.005.094a4.475,4.475,0,0,1-.871.385c-.8.29-1.9.588-3.074.9l-1.119.3c-1.793.528-3.948,2.265-4.032,7.574,0,.06,0,.122,0,.182l.009.188.039.758.713.26.176.062a32.362,32.362,0,0,0,6.822,1.619A9.649,9.649,0,0,1,587.32,484.18Zm29.253,1.779c-.589-.164-1.169-.32-1.73-.473-1.825-.487-3.548-.95-4.816-1.412a6.874,6.874,0,0,1-1.336-.6c0-.039,0-.078-.005-.106s0-.062,0-.094a21.428,21.428,0,0,0,3.495-6.137,4.855,4.855,0,0,0,1.109-1.135,6.457,6.457,0,0,0,1.018-2.274,6.894,6.894,0,0,0,.185-1.579,5.053,5.053,0,0,0-.724-2.721c-.115-6.817-5.235-12.336-11.547-12.343-6.276.007-11.406,5.506-11.54,12.344a5.048,5.048,0,0,0-.724,2.729,6.731,6.731,0,0,0,.191,1.583,6.364,6.364,0,0,0,1.008,2.25,4.85,4.85,0,0,0,1.122,1.151,21.358,21.358,0,0,0,3.489,6.132.493.493,0,0,1,0,.055c0,.039-.005.088-.008.148a7.039,7.039,0,0,1-1.361.6c-1.245.452-2.971.918-4.8,1.408l-1.75.475c-2.8.826-6.169,3.537-6.3,11.836,0,.091,0,.189,0,.283l.015.293.059,1.185,1.113.4.277.1a61.276,61.276,0,0,0,38.432,0l.289-.106,1.149-.422.019-1.224.007-.334v-.26C622.764,489.5,619.4,486.789,616.573,485.959Z" transform="translate(-573.203 -457.088)"/>
</svg>